<?xml version="1.0" encoding="UTF-8" standalone="no"?>
<!DOCTYPE svg PUBLIC "-//W3C//DTD SVG 1.1//EN"
 "http://www.w3.org/Graphics/SVG/1.1/DTD/svg11.dtd">
<!-- Generated by graphviz version 2.38.0 (20140413.2041)
 -->
<!-- Title: %3 Pages: 1 -->
<svg width="1328pt" height="765pt"
 viewBox="0.00 0.00 1327.54 765.00" xmlns="http://www.w3.org/2000/svg" xmlns:xlink="http://www.w3.org/1999/xlink">
<g id="graph0" class="graph" transform="scale(1 1) rotate(0) translate(4 760.999)">
<title>%3</title>
<polygon fill="white" stroke="none" points="-4,4 -4,-760.999 1323.54,-760.999 1323.54,4 -4,4"/>
<!-- 3 -->
<g id="node1" class="node"><title>3</title>
<ellipse fill="red" stroke="black" cx="328.269" cy="-444.583" rx="321.053" ry="48.1667"/>
<text text-anchor="middle" x="328.269" y="-463.383" font-family="Times,serif" font-size="14.00"> node=3</text>
<text text-anchor="middle" x="328.269" y="-448.383" font-family="Times,serif" font-size="14.00">file=codes/sum.py </text>
<text text-anchor="middle" x="328.269" y="-433.383" font-family="Times,serif" font-size="14.00">fileOut=Out_8da7799d76415c4b38febf35778efe382ab7838483818ab9ef3bfc08 </text>
<text text-anchor="middle" x="328.269" y="-418.383" font-family="Times,serif" font-size="14.00">[]</text>
</g>
<!-- 4 -->
<g id="node6" class="node"><title>4</title>
<ellipse fill="red" stroke="black" cx="679.269" cy="-312.416" rx="323.71" ry="48.1667"/>
<text text-anchor="middle" x="679.269" y="-331.216" font-family="Times,serif" font-size="14.00"> node=4</text>
<text text-anchor="middle" x="679.269" y="-316.216" font-family="Times,serif" font-size="14.00">file=codes/sum.py </text>
<text text-anchor="middle" x="679.269" y="-301.216" font-family="Times,serif" font-size="14.00">fileOut=Out_04f11058d5643cb008769ad3e1ca8defa623701c1916e90f792dbd82 </text>
<text text-anchor="middle" x="679.269" y="-286.216" font-family="Times,serif" font-size="14.00">[]</text>
</g>
<!-- 3&#45;&gt;4 -->
<g id="edge10" class="edge"><title>3&#45;&gt;4</title>
<path fill="none" stroke="black" d="M446.612,-399.696C480.358,-387.181 517.269,-373.493 551.548,-360.781"/>
<polygon fill="black" stroke="black" points="552.982,-363.982 561.141,-357.223 550.548,-357.419 552.982,-363.982"/>
</g>
<!-- 5 -->
<g id="node7" class="node"><title>5</title>
<ellipse fill="red" stroke="black" cx="329.269" cy="-180.25" rx="322.381" ry="48.1667"/>
<text text-anchor="middle" x="329.269" y="-199.05" font-family="Times,serif" font-size="14.00"> node=5</text>
<text text-anchor="middle" x="329.269" y="-184.05" font-family="Times,serif" font-size="14.00">file=codes/sum.py </text>
<text text-anchor="middle" x="329.269" y="-169.05" font-family="Times,serif" font-size="14.00">fileOut=Out_cdf9eb031ee62d2dd6fb77e62468511a31f076719549fe0a3027b9a6 </text>
<text text-anchor="middle" x="329.269" y="-154.05" font-family="Times,serif" font-size="14.00">[]</text>
</g>
<!-- 3&#45;&gt;5 -->
<g id="edge7" class="edge"><title>3&#45;&gt;5</title>
<path fill="none" stroke="black" d="M328.449,-396.38C328.618,-352.127 328.87,-285.878 329.051,-238.6"/>
<polygon fill="black" stroke="black" points="332.551,-238.529 329.089,-228.515 325.551,-238.502 332.551,-238.529"/>
</g>
<!-- 1 -->
<g id="node2" class="node"><title>1</title>
<ellipse fill="red" stroke="black" cx="325.269" cy="-708.916" rx="325.038" ry="48.1667"/>
<text text-anchor="middle" x="325.269" y="-727.716" font-family="Times,serif" font-size="14.00"> node=1</text>
<text text-anchor="middle" x="325.269" y="-712.716" font-family="Times,serif" font-size="14.00">file=codes/insert_number.py </text>
<text text-anchor="middle" x="325.269" y="-697.716" font-family="Times,serif" font-size="14.00">fileOut=Out_caa6c24207ad4655de317797e18c8beab54d05709159f033c40ac229 </text>
<text text-anchor="middle" x="325.269" y="-682.716" font-family="Times,serif" font-size="14.00">[1]</text>
</g>
<!-- 1&#45;&gt;3 -->
<g id="edge1" class="edge"><title>1&#45;&gt;3</title>
<path fill="none" stroke="black" d="M325.809,-660.713C326.315,-616.46 327.073,-550.211 327.613,-502.933"/>
<polygon fill="black" stroke="black" points="331.114,-502.888 327.729,-492.849 324.114,-502.808 331.114,-502.888"/>
</g>
<!-- 2 -->
<g id="node3" class="node"><title>2</title>
<ellipse fill="red" stroke="black" cx="679.269" cy="-576.749" rx="325.952" ry="48.1667"/>
<text text-anchor="middle" x="679.269" y="-595.549" font-family="Times,serif" font-size="14.00"> node=2</text>
<text text-anchor="middle" x="679.269" y="-580.549" font-family="Times,serif" font-size="14.00">file=codes/sum.py </text>
<text text-anchor="middle" x="679.269" y="-565.549" font-family="Times,serif" font-size="14.00">fileOut=Out_96a129a7f71902ad277111cf575219abb827eda7ed15ab7d5d201885 </text>
<text text-anchor="middle" x="679.269" y="-550.549" font-family="Times,serif" font-size="14.00">[]</text>
</g>
<!-- 1&#45;&gt;2 -->
<g id="edge6" class="edge"><title>1&#45;&gt;2</title>
<path fill="none" stroke="black" d="M444.624,-664.029C478.658,-651.514 515.884,-637.826 550.456,-625.114"/>
<polygon fill="black" stroke="black" points="551.954,-628.293 560.132,-621.556 549.538,-621.723 551.954,-628.293"/>
</g>
<!-- 2&#45;&gt;3 -->
<g id="edge2" class="edge"><title>2&#45;&gt;3</title>
<path fill="none" stroke="black" d="M560.926,-531.862C527.18,-519.348 490.269,-505.66 455.991,-492.948"/>
<polygon fill="black" stroke="black" points="456.99,-489.585 446.397,-489.39 454.556,-496.149 456.99,-489.585"/>
</g>
<!-- 2&#45;&gt;4 -->
<g id="edge9" class="edge"><title>2&#45;&gt;4</title>
<path fill="none" stroke="black" d="M679.269,-528.546C679.269,-484.294 679.269,-418.044 679.269,-370.766"/>
<polygon fill="black" stroke="black" points="682.769,-370.682 679.269,-360.682 675.769,-370.682 682.769,-370.682"/>
</g>
<!-- 0 -->
<g id="node4" class="node"><title>0</title>
<ellipse fill="red" stroke="black" cx="994.269" cy="-708.916" rx="325.038" ry="48.1667"/>
<text text-anchor="middle" x="994.269" y="-727.716" font-family="Times,serif" font-size="14.00"> node=0</text>
<text text-anchor="middle" x="994.269" y="-712.716" font-family="Times,serif" font-size="14.00">file=codes/insert_number.py </text>
<text text-anchor="middle" x="994.269" y="-697.716" font-family="Times,serif" font-size="14.00">fileOut=Out_caa6c24207ad4655de317797e18c8beab54d05709159f033c40ac229 </text>
<text text-anchor="middle" x="994.269" y="-682.716" font-family="Times,serif" font-size="14.00">[1]</text>
</g>
<!-- 0&#45;&gt;2 -->
<g id="edge5" class="edge"><title>0&#45;&gt;2</title>
<path fill="none" stroke="black" d="M886.745,-663.484C857.636,-651.455 825.986,-638.377 796.378,-626.142"/>
<polygon fill="black" stroke="black" points="797.422,-622.786 786.843,-622.202 794.748,-629.256 797.422,-622.786"/>
</g>
<!-- 6 -->
<g id="node5" class="node"><title>6</title>
<ellipse fill="red" stroke="black" cx="504.269" cy="-48.0833" rx="328.195" ry="48.1667"/>
<text text-anchor="middle" x="504.269" y="-66.8833" font-family="Times,serif" font-size="14.00"> node=6</text>
<text text-anchor="middle" x="504.269" y="-51.8833" font-family="Times,serif" font-size="14.00">file=codes/sum.py </text>
<text text-anchor="middle" x="504.269" y="-36.8833" font-family="Times,serif" font-size="14.00">fileOut=Out_4457731d94dab4585b12d93287660b59c5e52e5893f96d18b49ee6e5 </text>
<text text-anchor="middle" x="504.269" y="-21.8833" font-family="Times,serif" font-size="14.00">[]</text>
</g>
<!-- 4&#45;&gt;6 -->
<g id="edge3" class="edge"><title>4&#45;&gt;6</title>
<path fill="none" stroke="black" d="M685.725,-264.297C688.519,-225.567 686.435,-170.95 660.269,-132.167 651.682,-119.438 640.491,-108.511 628.043,-99.1678"/>
<polygon fill="black" stroke="black" points="629.879,-96.1792 619.696,-93.2536 625.832,-101.891 629.879,-96.1792"/>
</g>
<!-- 4&#45;&gt;5 -->
<g id="edge8" class="edge"><title>4&#45;&gt;5</title>
<path fill="none" stroke="black" d="M561.263,-267.529C527.613,-255.015 490.808,-241.327 456.627,-228.615"/>
<polygon fill="black" stroke="black" points="457.653,-225.262 447.06,-225.057 455.213,-231.823 457.653,-225.262"/>
</g>
<!-- 5&#45;&gt;6 -->
<g id="edge4" class="edge"><title>5&#45;&gt;6</title>
<path fill="none" stroke="black" d="M391.46,-132.991C405.175,-122.79 419.797,-111.914 433.813,-101.489"/>
<polygon fill="black" stroke="black" points="436.049,-104.188 441.984,-95.4118 431.871,-98.5717 436.049,-104.188"/>
</g>
</g>
</svg>
