<?xml version="1.0" encoding="UTF-8" standalone="no"?>
<!DOCTYPE svg PUBLIC "-//W3C//DTD SVG 1.1//EN"
 "http://www.w3.org/Graphics/SVG/1.1/DTD/svg11.dtd">
<!-- Generated by graphviz version 2.38.0 (20140413.2041)
 -->
<!-- Title: %3 Pages: 1 -->
<svg width="1328pt" height="765pt"
 viewBox="0.00 0.00 1327.54 765.00" xmlns="http://www.w3.org/2000/svg" xmlns:xlink="http://www.w3.org/1999/xlink">
<g id="graph0" class="graph" transform="scale(1 1) rotate(0) translate(4 760.999)">
<title>%3</title>
<polygon fill="white" stroke="none" points="-4,4 -4,-760.999 1323.54,-760.999 1323.54,4 -4,4"/>
<!-- 2 -->
<g id="node1" class="node"><title>2</title>
<ellipse fill="green" stroke="black" cx="640.269" cy="-576.749" rx="325.952" ry="48.1667"/>
<text text-anchor="middle" x="640.269" y="-595.549" font-family="Times,serif" font-size="14.00"> node=2</text>
<text text-anchor="middle" x="640.269" y="-580.549" font-family="Times,serif" font-size="14.00">file=codes/sum.py </text>
<text text-anchor="middle" x="640.269" y="-565.549" font-family="Times,serif" font-size="14.00">fileOut=Out_96a129a7f71902ad277111cf575219abb827eda7ed15ab7d5d201885 </text>
<text text-anchor="middle" x="640.269" y="-550.549" font-family="Times,serif" font-size="14.00">[]</text>
</g>
<!-- 4 -->
<g id="node4" class="node"><title>4</title>
<ellipse fill="green" stroke="black" cx="640.269" cy="-312.416" rx="323.71" ry="48.1667"/>
<text text-anchor="middle" x="640.269" y="-331.216" font-family="Times,serif" font-size="14.00"> node=4</text>
<text text-anchor="middle" x="640.269" y="-316.216" font-family="Times,serif" font-size="14.00">file=codes/sum.py </text>
<text text-anchor="middle" x="640.269" y="-301.216" font-family="Times,serif" font-size="14.00">fileOut=Out_04f11058d5643cb008769ad3e1ca8defa623701c1916e90f792dbd82 </text>
<text text-anchor="middle" x="640.269" y="-286.216" font-family="Times,serif" font-size="14.00">[]</text>
</g>
<!-- 2&#45;&gt;4 -->
<g id="edge3" class="edge"><title>2&#45;&gt;4</title>
<path fill="none" stroke="black" d="M640.269,-528.546C640.269,-484.294 640.269,-418.044 640.269,-370.766"/>
<polygon fill="black" stroke="black" points="643.769,-370.682 640.269,-360.682 636.769,-370.682 643.769,-370.682"/>
</g>
<!-- 3 -->
<g id="node5" class="node"><title>3</title>
<ellipse fill="green" stroke="black" cx="990.269" cy="-444.583" rx="321.053" ry="48.1667"/>
<text text-anchor="middle" x="990.269" y="-463.383" font-family="Times,serif" font-size="14.00"> node=3</text>
<text text-anchor="middle" x="990.269" y="-448.383" font-family="Times,serif" font-size="14.00">file=codes/sum.py </text>
<text text-anchor="middle" x="990.269" y="-433.383" font-family="Times,serif" font-size="14.00">fileOut=Out_8da7799d76415c4b38febf35778efe382ab7838483818ab9ef3bfc08 </text>
<text text-anchor="middle" x="990.269" y="-418.383" font-family="Times,serif" font-size="14.00">[]</text>
</g>
<!-- 2&#45;&gt;3 -->
<g id="edge8" class="edge"><title>2&#45;&gt;3</title>
<path fill="none" stroke="black" d="M758.275,-531.862C791.925,-519.348 828.731,-505.66 862.911,-492.948"/>
<polygon fill="black" stroke="black" points="864.325,-496.156 872.478,-489.39 861.885,-489.595 864.325,-496.156"/>
</g>
<!-- 0 -->
<g id="node2" class="node"><title>0</title>
<ellipse fill="green" stroke="black" cx="325.269" cy="-708.916" rx="325.038" ry="48.1667"/>
<text text-anchor="middle" x="325.269" y="-727.716" font-family="Times,serif" font-size="14.00"> node=0</text>
<text text-anchor="middle" x="325.269" y="-712.716" font-family="Times,serif" font-size="14.00">file=codes/insert_number.py </text>
<text text-anchor="middle" x="325.269" y="-697.716" font-family="Times,serif" font-size="14.00">fileOut=Out_caa6c24207ad4655de317797e18c8beab54d05709159f033c40ac229 </text>
<text text-anchor="middle" x="325.269" y="-682.716" font-family="Times,serif" font-size="14.00">[1]</text>
</g>
<!-- 0&#45;&gt;2 -->
<g id="edge1" class="edge"><title>0&#45;&gt;2</title>
<path fill="none" stroke="black" d="M432.793,-663.484C461.902,-651.455 493.552,-638.377 523.16,-626.142"/>
<polygon fill="black" stroke="black" points="524.79,-629.256 532.695,-622.202 522.116,-622.786 524.79,-629.256"/>
</g>
<!-- 1 -->
<g id="node3" class="node"><title>1</title>
<ellipse fill="green" stroke="black" cx="994.269" cy="-708.916" rx="325.038" ry="48.1667"/>
<text text-anchor="middle" x="994.269" y="-727.716" font-family="Times,serif" font-size="14.00"> node=1</text>
<text text-anchor="middle" x="994.269" y="-712.716" font-family="Times,serif" font-size="14.00">file=codes/insert_number.py </text>
<text text-anchor="middle" x="994.269" y="-697.716" font-family="Times,serif" font-size="14.00">fileOut=Out_caa6c24207ad4655de317797e18c8beab54d05709159f033c40ac229 </text>
<text text-anchor="middle" x="994.269" y="-682.716" font-family="Times,serif" font-size="14.00">[1]</text>
</g>
<!-- 1&#45;&gt;2 -->
<g id="edge2" class="edge"><title>1&#45;&gt;2</title>
<path fill="none" stroke="black" d="M874.914,-664.029C840.88,-651.514 803.654,-637.826 769.082,-625.114"/>
<polygon fill="black" stroke="black" points="770,-621.723 759.407,-621.556 767.584,-628.293 770,-621.723"/>
</g>
<!-- 1&#45;&gt;3 -->
<g id="edge7" class="edge"><title>1&#45;&gt;3</title>
<path fill="none" stroke="black" d="M993.549,-660.713C992.875,-616.46 991.864,-550.211 991.144,-502.933"/>
<polygon fill="black" stroke="black" points="994.642,-502.794 990.99,-492.849 987.643,-502.901 994.642,-502.794"/>
</g>
<!-- 6 -->
<g id="node6" class="node"><title>6</title>
<ellipse fill="green" stroke="black" cx="815.269" cy="-48.0833" rx="328.195" ry="48.1667"/>
<text text-anchor="middle" x="815.269" y="-66.8833" font-family="Times,serif" font-size="14.00"> node=6</text>
<text text-anchor="middle" x="815.269" y="-51.8833" font-family="Times,serif" font-size="14.00">file=codes/sum.py </text>
<text text-anchor="middle" x="815.269" y="-36.8833" font-family="Times,serif" font-size="14.00">fileOut=Out_4457731d94dab4585b12d93287660b59c5e52e5893f96d18b49ee6e5 </text>
<text text-anchor="middle" x="815.269" y="-21.8833" font-family="Times,serif" font-size="14.00">[]</text>
</g>
<!-- 4&#45;&gt;6 -->
<g id="edge5" class="edge"><title>4&#45;&gt;6</title>
<path fill="none" stroke="black" d="M633.813,-264.297C631.019,-225.567 633.104,-170.95 659.269,-132.167 667.856,-119.438 679.047,-108.511 691.495,-99.1678"/>
<polygon fill="black" stroke="black" points="693.706,-101.891 699.842,-93.2536 689.659,-96.1792 693.706,-101.891"/>
</g>
<!-- 5 -->
<g id="node7" class="node"><title>5</title>
<ellipse fill="green" stroke="black" cx="990.269" cy="-180.25" rx="322.381" ry="48.1667"/>
<text text-anchor="middle" x="990.269" y="-199.05" font-family="Times,serif" font-size="14.00"> node=5</text>
<text text-anchor="middle" x="990.269" y="-184.05" font-family="Times,serif" font-size="14.00">file=codes/sum.py </text>
<text text-anchor="middle" x="990.269" y="-169.05" font-family="Times,serif" font-size="14.00">fileOut=Out_cdf9eb031ee62d2dd6fb77e62468511a31f076719549fe0a3027b9a6 </text>
<text text-anchor="middle" x="990.269" y="-154.05" font-family="Times,serif" font-size="14.00">[]</text>
</g>
<!-- 4&#45;&gt;5 -->
<g id="edge10" class="edge"><title>4&#45;&gt;5</title>
<path fill="none" stroke="black" d="M758.275,-267.529C791.925,-255.015 828.731,-241.327 862.911,-228.615"/>
<polygon fill="black" stroke="black" points="864.325,-231.823 872.478,-225.057 861.885,-225.262 864.325,-231.823"/>
</g>
<!-- 3&#45;&gt;4 -->
<g id="edge4" class="edge"><title>3&#45;&gt;4</title>
<path fill="none" stroke="black" d="M872.263,-399.696C838.613,-387.181 801.808,-373.493 767.627,-360.781"/>
<polygon fill="black" stroke="black" points="768.653,-357.429 758.06,-357.223 766.213,-363.99 768.653,-357.429"/>
</g>
<!-- 3&#45;&gt;5 -->
<g id="edge9" class="edge"><title>3&#45;&gt;5</title>
<path fill="none" stroke="black" d="M990.269,-396.38C990.269,-352.127 990.269,-285.878 990.269,-238.6"/>
<polygon fill="black" stroke="black" points="993.769,-238.515 990.269,-228.515 986.769,-238.515 993.769,-238.515"/>
</g>
<!-- 5&#45;&gt;6 -->
<g id="edge6" class="edge"><title>5&#45;&gt;6</title>
<path fill="none" stroke="black" d="M928.078,-132.991C914.363,-122.79 899.741,-111.914 885.725,-101.489"/>
<polygon fill="black" stroke="black" points="887.667,-98.5717 877.555,-95.4118 883.49,-104.188 887.667,-98.5717"/>
</g>
</g>
</svg>
